<mxfile host="drawio-plugin" modified="2021-12-15T05:46:19.243Z" agent="5.0 (Macintosh; Intel Mac OS X 11_2_3) AppleWebKit/537.36 (KHTML, like Gecko) Chrome/89.0.4389.114 Safari/537.36" etag="RziXKET5WjVVB15bIXmz" version="14.7.4" type="embed" pages="2"><diagram id="23iRSUPoRavnBvh4doch" name="主从-复制"><mxGraphModel dx="1624" dy="813" grid="1" gridSize="10" guides="1" tooltips="1" connect="1" arrows="1" fold="1" page="1" pageScale="1" pageWidth="827" pageHeight="1169" math="0" shadow="0"><root><mxCell id="0"/><mxCell id="1" parent="0"/><mxCell id="28" value="" style="group" vertex="1" connectable="0" parent="1"><mxGeometry x="20" y="150" width="850" height="380" as="geometry"/></mxCell><mxCell id="24" value="" style="whiteSpace=wrap;html=1;" vertex="1" parent="28"><mxGeometry x="410" y="40" width="440" height="340" as="geometry"/></mxCell><mxCell id="10" value="" style="rounded=0;whiteSpace=wrap;html=1;" vertex="1" parent="28"><mxGeometry y="50" width="350" height="320" as="geometry"/></mxCell><mxCell id="4" value="" style="edgeStyle=orthogonalEdgeStyle;rounded=0;orthogonalLoop=1;jettySize=auto;html=1;" edge="1" parent="28" source="2"><mxGeometry relative="1" as="geometry"><mxPoint x="100" y="270" as="targetPoint"/></mxGeometry></mxCell><mxCell id="5" value="1. 数据变更" style="edgeLabel;html=1;align=center;verticalAlign=middle;resizable=0;points=[];" vertex="1" connectable="0" parent="4"><mxGeometry x="-0.1778" relative="1" as="geometry"><mxPoint as="offset"/></mxGeometry></mxCell><mxCell id="2" value="Master" style="shape=cylinder;whiteSpace=wrap;html=1;boundedLbl=1;backgroundOutline=1;" vertex="1" parent="28"><mxGeometry x="70" y="100" width="60" height="80" as="geometry"/></mxCell><mxCell id="8" value="Dump thread" style="shape=process;whiteSpace=wrap;html=1;backgroundOutline=1;strokeColor=#6F0000;fontColor=#ffffff;fillColor=#FF0000;" vertex="1" parent="28"><mxGeometry x="214" y="150" width="90" height="30" as="geometry"/></mxCell><mxCell id="9" value="Slave1" style="shape=cylinder;whiteSpace=wrap;html=1;boundedLbl=1;backgroundOutline=1;" vertex="1" parent="28"><mxGeometry x="600" y="100" width="60" height="80" as="geometry"/></mxCell><mxCell id="26" style="edgeStyle=orthogonalEdgeStyle;curved=1;rounded=0;orthogonalLoop=1;jettySize=auto;html=1;entryX=0.5;entryY=0;entryDx=0;entryDy=0;" edge="1" parent="28" source="2" target="9"><mxGeometry relative="1" as="geometry"><Array as="points"><mxPoint x="100"/><mxPoint x="630"/></Array></mxGeometry></mxCell><mxCell id="27" value="主从复制示意图" style="edgeLabel;html=1;align=center;verticalAlign=middle;resizable=0;points=[];" vertex="1" connectable="0" parent="26"><mxGeometry x="-0.074" y="4" relative="1" as="geometry"><mxPoint x="32" as="offset"/></mxGeometry></mxCell><mxCell id="11" value="IO thread" style="shape=process;whiteSpace=wrap;html=1;backgroundOutline=1;strokeColor=#6F0000;fontColor=#ffffff;fillColor=#FF0000;" vertex="1" parent="28"><mxGeometry x="460" y="150" width="90" height="30" as="geometry"/></mxCell><mxCell id="12" style="edgeStyle=orthogonalEdgeStyle;rounded=0;orthogonalLoop=1;jettySize=auto;html=1;" edge="1" parent="28" source="8" target="11"><mxGeometry relative="1" as="geometry"/></mxCell><mxCell id="20" value="2. 发送变更日志" style="edgeLabel;html=1;align=center;verticalAlign=middle;resizable=0;points=[];" vertex="1" connectable="0" parent="12"><mxGeometry x="-0.2949" y="1" relative="1" as="geometry"><mxPoint as="offset"/></mxGeometry></mxCell><mxCell id="17" value="&lt;span&gt;Binlog日志&lt;/span&gt;" style="strokeWidth=2;html=1;shape=mxgraph.flowchart.multi-document;whiteSpace=wrap;" vertex="1" parent="28"><mxGeometry x="56" y="270" width="88" height="60" as="geometry"/></mxCell><mxCell id="18" value="&lt;span&gt;Relay日志&lt;/span&gt;" style="strokeWidth=2;html=1;shape=mxgraph.flowchart.multi-document;whiteSpace=wrap;" vertex="1" parent="28"><mxGeometry x="461" y="280" width="88" height="60" as="geometry"/></mxCell><mxCell id="19" style="edgeStyle=orthogonalEdgeStyle;rounded=0;orthogonalLoop=1;jettySize=auto;html=1;entryX=0.5;entryY=0;entryDx=0;entryDy=0;entryPerimeter=0;" edge="1" parent="28" source="11" target="18"><mxGeometry relative="1" as="geometry"/></mxCell><mxCell id="25" value="3. 写入relay文件" style="edgeLabel;html=1;align=center;verticalAlign=middle;resizable=0;points=[];" vertex="1" connectable="0" parent="19"><mxGeometry x="0.04" relative="1" as="geometry"><mxPoint as="offset"/></mxGeometry></mxCell><mxCell id="22" style="edgeStyle=orthogonalEdgeStyle;rounded=0;orthogonalLoop=1;jettySize=auto;html=1;entryX=1;entryY=0.5;entryDx=0;entryDy=0;entryPerimeter=0;" edge="1" parent="28" source="21" target="18"><mxGeometry relative="1" as="geometry"><Array as="points"><mxPoint x="760" y="310"/></Array></mxGeometry></mxCell><mxCell id="23" value="4. 读取&amp;amp;回放" style="edgeLabel;html=1;align=center;verticalAlign=middle;resizable=0;points=[];" vertex="1" connectable="0" parent="22"><mxGeometry x="0.4076" y="1" relative="1" as="geometry"><mxPoint as="offset"/></mxGeometry></mxCell><mxCell id="21" value="SQL thread" style="shape=process;whiteSpace=wrap;html=1;backgroundOutline=1;strokeColor=#6F0000;fontColor=#ffffff;fillColor=#FF0000;" vertex="1" parent="28"><mxGeometry x="717" y="150" width="90" height="30" as="geometry"/></mxCell></root></mxGraphModel></diagram><diagram id="0_aeP1CUb5tOx2EN_Q77" name="主从-读写分离"><mxGraphModel dx="1624" dy="813" grid="1" gridSize="10" guides="1" tooltips="1" connect="1" arrows="1" fold="1" page="1" pageScale="1" pageWidth="850" pageHeight="1100" math="0" shadow="0"><root><mxCell id="oFKj083qfVkzm0FyBX3w-0"/><mxCell id="oFKj083qfVkzm0FyBX3w-1" parent="oFKj083qfVkzm0FyBX3w-0"/></root></mxGraphModel></diagram></mxfile>